<?xml version="1.0"?>
<svg width="640" height="480" xmlns="http://www.w3.org/2000/svg" xmlns:svg="http://www.w3.org/2000/svg">
 <!-- Created with SVG-edit - http://svg-edit.googlecode.com/ -->
 <g>
  <title>Layer 1</title>
  <path stroke="#000000" id="svg_12" d="m286.258118,314.742035c10.440948,-9.931396 19.299591,-21.760162 23.043274,-35.189209c-11.193115,7.751068 -21.454132,20.218384 -37.064667,19.744385c-11.783234,0.616913 -25.823547,0.625885 -34.117172,-8.351257c-18.538315,-13.581421 -23.518051,-40.726105 -8.295959,-58.0112c10.415298,-12.47847 28.60704,-17.770142 45.299667,-15.897766c10.521698,-4.06929 -2.054962,-14.362183 -3.319702,-20.788681c-7.831207,-23.307587 10.614227,-51.263245 37.728729,-53.948486c19.453796,-2.544739 38.467377,8.924515 47.984161,23.813583c5.171967,10.416016 2.478516,22.239914 1.271332,33.04776c-4.065063,5.42955 -14.470428,18.56897 0.381897,17.533417c14.682648,-0.210602 30.187042,3.718231 39.870941,14.356659c14.16214,14.323883 15.462433,38.003296 1.212891,52.643372c-7.53537,8.915894 -18.846588,16.052795 -31.647614,15.655426c-12.531189,1.152679 -26.099457,-1.322174 -34.980316,-10.021484c-3.792358,-2.419281 -13.077301,-11.560486 -13.074188,-9.556885c9.28183,17.618622 19.774689,35.912415 38.342499,46.825897c6.632935,4.858276 -10.104279,1.517975 -14.156281,2.50943c-24.549255,0.017242 -49.097626,0.03833 -73.646729,0.05835c5.056274,-4.809174 10.113586,-9.614532 15.167236,-14.423309l0,0z" stroke-linecap="null" stroke-linejoin="null" stroke-dasharray="null" stroke-width="5" fill="none"/>
  <path id="svg_13" d="m296.25824,285.309814c-37.040771,-27.537781 -50.284363,-44.957764 -50.391449,-66.284515c-0.097855,-19.439835 16.249359,-38.205765 33.193207,-38.096832c8.459747,0.053528 26.607056,7.209854 33.03421,13.025742c3.236389,2.930115 4.770752,2.640228 11.980591,-2.258026c19.617188,-13.332245 38.776215,-13.611038 51.183472,-0.745941c19.831329,20.558701 16.21991,45.109116 -10.378082,70.575333c-14.140961,13.540863 -45.02243,37.55957 -48.288422,37.55957c-0.9953,0 -10.143585,-6.19809 -20.333527,-13.77533l0,0z" stroke-linecap="null" stroke-linejoin="null" stroke-dasharray="null" stroke-width="5" stroke="#000000" fill="#ff0000"/>
 </g>
</svg>